<svg id="Layer_1" data-name="Layer 1" xmlns="http://www.w3.org/2000/svg" viewBox="0 0 120 160"><defs><style>.cls-1{fill:#060606;}.cls-2{fill:#535e68;}.cls-3{fill:#85898e;}.cls-4{fill:#414243;}.cls-5{fill:#3e4041;}.cls-6{fill:#fdfefe;}.cls-7{fill:#fcfcfd;}.cls-8{fill:#d6dde6;}.cls-9{fill:#d3dae4;}.cls-10{fill:#cfd7e2;}.cls-11{fill:#778794;}.cls-12{fill:#6e7c89;}.cls-13{fill:#a3b0bf;}.cls-14{fill:#0b0b0b;}.cls-15{fill:#808d99;}.cls-16{fill:#2f363b;}.cls-17{fill:#30373d;}.cls-18{fill:#c4ced9;}.cls-19{fill:#aebac8;}.cls-20{fill:#d3dbe4;}.cls-21{fill:#4e5b66;}.cls-22{fill:#c9d2dc;}.cls-23{fill:#070707;}.cls-24{fill:#0c0c0d;}.cls-25{fill:#8796a4;}.cls-26{fill:#8493a0;}.cls-27{fill:#6a7179;}.cls-28{fill:#c5ceda;}.cls-29{fill:#909fad;}.cls-30{fill:#8a99a8;}.cls-31{fill:#4f5c67;}.cls-32{fill:#7f8d9b;}.cls-33{fill:#4f5b66;}.cls-34{fill:#768592;}.cls-35{fill:#4a565f;}.cls-36{fill:#a5b1bf;}.cls-37{fill:#adb9c6;}.cls-38{fill:#262a2d;}.cls-39{fill:#636f79;}.cls-40{fill:#1b1b1c;}.cls-41{fill:#121314;}.cls-42{fill:#97a6b5;}</style></defs><title>Artboard 1</title><path class="cls-1" d="M10.56,120.12c-5.11-7.39-7.75-15.74-9.19-24.49C-1.1,80.6-.37,65.77,4.71,51.31A42.66,42.66,0,0,1,14,35.49c.37-.11.5.11.57.41-.95,2.2-2.85,3.78-3.9,5.92-.33.69-.76,1.34-1.08,2A54.13,54.13,0,0,0,4.3,58.62,95.69,95.69,0,0,0,2.22,85.5,77.44,77.44,0,0,0,8,111.2,41.21,41.21,0,0,0,11.17,118c2.17,3.23,5.46,4.88,8.94,6.26a46.28,46.28,0,0,0,9.43,5.94,67.79,67.79,0,0,0,18.69,4.5,83.1,83.1,0,0,0,13.65.78c9.32-.48,18.58-1.4,27.42-4.78a42,42,0,0,0,10.51-6.37c3.66-1.64,7.28-3.32,9.37-7a39.54,39.54,0,0,0,2.81-6,80.92,80.92,0,0,0,5.86-30.69A108.75,108.75,0,0,0,116,59.84a56.82,56.82,0,0,0-5.57-16,33.23,33.23,0,0,0-3.5-5.65,3.67,3.67,0,0,1-1.1-1.95c.08-.3.21-.53.58-.42,6.17,6.84,9.46,15.1,11.35,23.92C121.42,77,120.8,94,114.48,110.64a39.4,39.4,0,0,1-5.07,9.49c-2,2-3.62,4.33-5.77,6.2-5.29,4.59-11.6,7.06-18.19,9-10.64,3.11-21.57,3.7-32.51,3.05-9.92-.59-19.65-2.46-28.71-6.9a33.52,33.52,0,0,1-12-9.51A8.73,8.73,0,0,0,10.56,120.12Z"/><path class="cls-2" d="M10.56,120.12c.89.08,1.3.83,1.75,1.39,5.83,7.28,13.76,11,22.51,13.31a97.24,97.24,0,0,0,53.3-.84c7.66-2.29,14.44-6.08,19.54-12.46.45-.56.86-1.32,1.75-1.39-3.77,6.24-9.39,10.27-16,13A80.11,80.11,0,0,1,66.26,139c-12.88.67-25.56-.49-37.75-5-6.77-2.52-12.62-6.34-17-12.23C11.18,121.23,10.89,120.66,10.56,120.12Z"/><path class="cls-3" d="M21.66,29.26c5-3.19,10.59-4.8,16.26-6.17A97.72,97.72,0,0,1,66.6,20.88,79.94,79.94,0,0,1,94.05,27a9.2,9.2,0,0,1,1.12.67.38.38,0,0,1,0,.57,2.92,2.92,0,0,1-1.85-.39A90.74,90.74,0,0,0,66.38,22,96.56,96.56,0,0,0,31.3,26.12a83.58,83.58,0,0,0-8.91,3.7A.7.7,0,0,1,21.66,29.26Z"/><path class="cls-4" d="M95.2,28.07l0-.43a29.66,29.66,0,0,1,11.21,8.22l-.4.41c-1.36.1-1.68-1.23-2.45-1.89a42.91,42.91,0,0,0-7.33-5.24C95.76,28.9,95.27,28.67,95.2,28.07Z"/><path class="cls-5" d="M21.66,29.26l.38.34a1.13,1.13,0,0,1-.63.91,34.82,34.82,0,0,0-5.58,4.7c-.38.39-.78.89-1.48.66L14,35.49A25.89,25.89,0,0,1,21.66,29.26Z"/><path class="cls-6" d="M116.37,59.46a94.5,94.5,0,0,1,1.07,34.15,65.71,65.71,0,0,1-5.15,18.11,10.61,10.61,0,0,0-5,4.09c-1.46,2.18-2.77,4.47-4.42,6.52a6.75,6.75,0,0,1-2.67,2.15c-6.78,6.22-15.16,8.72-24,10.12a97.15,97.15,0,0,1-41.48-2,38.36,38.36,0,0,1-15.13-8.12A6.85,6.85,0,0,1,17,122.32c-1.45-2.11-2.91-4.21-4.29-6.37a11.42,11.42,0,0,0-5-4.26A68.35,68.35,0,0,1,2.08,90.14,97.11,97.11,0,0,1,3.64,59a4.89,4.89,0,0,1,.26-.73,7.34,7.34,0,0,0,2.35-3.18A66.84,66.84,0,0,1,12.69,44c.34-.5.85-1.58,1.51-.16a3.78,3.78,0,0,1-.46,1.65c-4.1,8.1-5.62,16.84-6.27,25.78a6.66,6.66,0,0,1-.12.76c-.46,3.11,0,6.24-.15,9.35-.26,3.78.41,7.49.71,11.22a34.35,34.35,0,0,0,.9,6.62c.44,2,.81,2.09,2.36.85a.6.6,0,0,1,.54-.1c1.12,1.62,1,3.64,1.79,5.38a24,24,0,0,0,1,3.42c1.78,4.63,3.64,9.2,6.94,13.06a27.86,27.86,0,0,0,13.63,8.71,86.18,86.18,0,0,0,19.39,3.08,92.94,92.94,0,0,0,29.63-2.87c9.37-2.51,15.7-8.46,19.49-17.27.51-1.18,1-2.39,1.45-3.58a47,47,0,0,0,2.13-7.06c.29-1,.53-2.06.78-3.1.11-.38.22-.77.34-1.15s.26-.56.62-.58c.66.17.76,1.38,1.66,1,.72-.31.82-1.12.92-1.8a78.26,78.26,0,0,0,1.26-14.08c-.17-3.81.27-7.62-.15-11.41a92.18,92.18,0,0,0-2.55-16,63,63,0,0,0-4.29-11.15,1.84,1.84,0,0,1-.07-.9c.88-1.27,1.3-.07,1.67.4,1,1.32,1.62,2.91,2.52,4.33a33.33,33.33,0,0,1,4,7.48C114.34,57.43,115.93,58,116.37,59.46Z"/><path class="cls-7" d="M14.35,35.87A40,40,0,0,1,22,29.6C32,24.21,42.79,22.29,53.9,21.52a93,93,0,0,1,37.75,5.1c1.2.43,2.37,1,3.55,1.45A37.59,37.59,0,0,1,106,36.27a36.65,36.65,0,0,1,4.71,7.23c.13.68-.28.6-.64.41a4.81,4.81,0,0,1-1.37-1.6C104.77,37.1,100,33,93.83,30.7c-.74-.27-1.52-1-2.24.06-3.21-1-6.29-2.31-9.57-3a100,100,0,0,0-28.77-2.24,86.34,86.34,0,0,0-24.83,5.27,2.49,2.49,0,0,0-2.36-.06C19.8,33.11,15,37.32,11,42.61c-.44.59-.64,1.66-1.8,1.25,0,0,0-.11,0-.16a.67.67,0,0,1,.07-.18A36.82,36.82,0,0,1,14.35,35.87Z"/><path class="cls-8" d="M92,30.5c.72-.69-1-.38-.25-1a32.62,32.62,0,0,1,17.47,12.83c.67.93.68,1,1.47,1.21a48.84,48.84,0,0,1,5.68,16c-3.46-1.91-3.56-6-5.64-8.8-1.5-2-2.61-4.37-3.91-6.56-.19-.33-.29-1-.9-.38-.61,0-.89-.42-1.17-.86A32.08,32.08,0,0,0,93.26,31.79C92.74,31.5,92,31.3,92,30.5Z"/><path class="cls-9" d="M9.28,43.52c1.17.4,1.08-.81,1.42-1.27,4.13-5.49,9.12-9.82,15.68-12.16.65-.23,1.26-.49,1.59.42-.18,1-1.1,1.2-1.77,1.58A31.41,31.41,0,0,0,15.43,42.51c-.36.52-.61,1.18-1.39,1.21-.26-.41-.53-.28-.72,0-2.4,4-5.2,7.86-7,12.27-.43,1.1-.84,2.39-2.46,2.26A46.18,46.18,0,0,1,9.28,43.52Z"/><path class="cls-10" d="M7.7,111.69c.52-.28,1-.49,1.54.06,1.65,1.73,3.69,3,4.8,5.35a42.27,42.27,0,0,0,3.36,5.06c-.8.54-1.45.07-2.1-.33a26.51,26.51,0,0,1-4.45-3.59A27.09,27.09,0,0,1,7.7,111.69Z"/><path class="cls-10" d="M102.55,122.15c1.63-2.35,3.18-4.75,4.76-7.13a19.93,19.93,0,0,1,3.74-3.52c.42-.36.84.07,1.24.22a23.42,23.42,0,0,1-2.75,5.78,18.69,18.69,0,0,1-4.73,4.18C104.14,122.14,103.46,122.75,102.55,122.15Z"/><path class="cls-11" d="M102.55,122.15c2.19-.36,3.55-2.05,5.24-3.23.61-.43,1.17-.94,1.75-1.42-2,3.76-5.5,5.58-9.29,7Z"/><path class="cls-12" d="M10.85,118.24c1.38.3,2.09,1.57,3.22,2.23s1.95,1.66,3.33,1.69c.63.9,1.77,1.31,2.27,2.33C16.14,123.24,13,121.49,10.85,118.24Z"/><path class="cls-13" d="M105.54,110.07c-2.52,7.31-6.43,13.57-13.17,17.76-4.57,2.85-9.67,4.15-14.87,5-14.11,2.43-28.17,2.21-42-1.63a28.46,28.46,0,0,1-19.29-17c-.76-1.77-1.43-3.58-2.14-5.37.12-.27.26-.5.61-.41,1.19,1.25,1.42,3,2.21,4.45a31.82,31.82,0,0,0,10,11.28,3.74,3.74,0,0,1,1.14,1c.54,1,1.58,1.22,2.48,1.64a3.87,3.87,0,0,1,2.12,1.71,11,11,0,0,0,.56-1.94c.78-3.41,2-6.7,2.8-10.09A2,2,0,0,1,37,115a.91.91,0,0,1,.73.44,1.52,1.52,0,0,1,0,1.13c-1.27,4-2.25,8.16-3.55,12.1a1.76,1.76,0,0,1,.75-.39,3,3,0,0,1,2.71.9c2.89,1.23,6,1.5,9.06,2a90,90,0,0,0,18.26.77c3.49-.18,7.05-.21,10.45-1.28a49.55,49.55,0,0,1,9.37-2.39,2.46,2.46,0,0,1,1.23.55A28,28,0,0,0,92,125.25a2.33,2.33,0,0,1,.82-.8c5.33-3.3,8.81-8.14,11.39-13.72a2.07,2.07,0,0,1,.76-1.08C105.28,109.57,105.42,109.81,105.54,110.07Z"/><path class="cls-14" d="M15.09,42.4A29.86,29.86,0,0,1,26.36,31.5c.55-.31,1.08-.66,1.61-1a88.41,88.41,0,0,1,64,0,35.19,35.19,0,0,1,13.92,13.22l.09.62c-.73.35-.64.26-1.48-.55-2.73-2.61-5.1-5.58-8.1-7.92a36.78,36.78,0,0,0-13.71-6.35A72.26,72.26,0,0,0,65.6,27.08a5.12,5.12,0,0,1-.87-.08,7.15,7.15,0,0,0-1.38-.26,2.74,2.74,0,0,0-.85.13,11.88,11.88,0,0,1-5.14,0,4.3,4.3,0,0,0-.87-.1,19.73,19.73,0,0,0-2,.32c-8.66.31-17.08,1.72-25.07,5.26-4.62,2.06-8.21,5.4-11.6,9a4.77,4.77,0,0,1-2,1.47C15.48,42.9,15,43.1,15.09,42.4Z"/><path class="cls-15" d="M64.6,26.66l.77-.05c5.08.67,10.19,1.06,15.22,2.19,7,1.58,13.52,4.26,18.69,9.38A37,37,0,0,1,108,52.83,76.68,76.68,0,0,1,111.44,71a8.29,8.29,0,0,0,1.36,3.84c-.37-1-.76-2.26.21-3.46.65,3.28.22,6.6.31,9.89,0,.71,0,1.41,0,2.11a6.09,6.09,0,0,0-.16,1.9c0,.47.24,1.09-.42,1.34s-1-.14-1.38-.47a2.54,2.54,0,0,1-1.1-2.21c.56,3.79-.08,7.86-.62,11.94a3.46,3.46,0,0,1-.85,2.29l-.07.7c-.42.09-.58-.2-.73-.5-.39-1.62.16-3.2.32-4.78,1.13-11.9,1.14-23.76-1.31-35.53a38.86,38.86,0,0,0-7.58-16.72c-4.2-5.23-9.8-8.22-16.12-10a105.41,105.41,0,0,0-16.35-2.79c-.86-.32-1.2-.11-.91.84.47,1.52,1,3,1.56,4.51.29.78.9,1.62.05,2.45a1,1,0,0,1-.86-.68,55.05,55.05,0,0,1-2.69-7C63.88,27.91,63.61,27.1,64.6,26.66Z"/><path class="cls-15" d="M6.67,81.48C6.74,78.25,6.3,75,7,71.79c.89,1,.51,2,.22,3.07,0,0,0,0,0,0,2-2.7,1.53-5.93,2-9A59.82,59.82,0,0,1,14.8,46.36,30.81,30.81,0,0,1,29,32.4c7.17-3.49,14.88-4.78,22.74-5.4a10.45,10.45,0,0,1,2.3-.18.48.48,0,0,1,.33.49,1.45,1.45,0,0,1-1,1.18c-6.44.81-12.88,1.56-19.1,3.66C24.77,35.35,18.6,41.81,15.12,51c-2.34,6.18-3.25,12.66-3.78,19.25C10.88,76,11.17,81.67,11,87.4a2.14,2.14,0,0,1-.92,2C8.87,86,10,82.72,9.7,79.79c-.08,1.18.3,2.73-.63,4.09-.44.63-.89,1.42-1.78,1.17S6.91,84,6.82,83.37A6.31,6.31,0,0,0,6.67,81.48Z"/><path class="cls-16" d="M54.19,27c-6.66.59-13.27,1.38-19.68,3.42C23.87,33.84,17,41,13.11,51.33,10.61,58,9.6,64.86,9,71.84c-.14,1.66-1.28,2.51-1.88,3.87L7,71.79C7.46,62,9.35,52.49,14,43.72l1.05-1.32c1.93,0,2.73-1.7,3.71-2.81a32.71,32.71,0,0,1,14.13-9.28,70.61,70.61,0,0,1,20.54-3.73,11.18,11.18,0,0,1,1.15.05C54.63,26.93,54.5,27.08,54.19,27Z"/><path class="cls-17" d="M113,71.39v3.92c-2.58-1.53-2.08-4.08-2.3-6.23a72.19,72.19,0,0,0-3.8-17.61c-4.19-11.5-12.15-18.78-24-21.78A76.31,76.31,0,0,0,68.12,27.3a4.85,4.85,0,0,1-2.75-.69c9.2.21,18.14,1.75,26.48,5.75A25.89,25.89,0,0,1,101,39.54c1.42,1.79,3.57,2.9,4.67,5l.32-.19c3.39,5.56,4.89,11.77,6,18.07A61.33,61.33,0,0,1,113,71.39Z"/><path class="cls-18" d="M108.76,98.18c.56-4.91,1.49-9.79,1.06-15.27,1,1.1.78,2.32,1.73,2.81.37.19.57.82,1.1.56s.23-.68.28-1c.07-.62-.12-1.29.36-1.84a73.36,73.36,0,0,1-1.36,14.41c-.16,1-.26,2.11-1.65,2.23S109.35,98.73,108.76,98.18Z"/><path class="cls-19" d="M6.67,81.48c.57.74.24,1.61.36,2.42,0,.3-.07.7.29.84s.73-.19.93-.49A5.13,5.13,0,0,0,9.34,81c-.06-1.31,0-2.61,0-3.92h.61v12c.82-.68.41-1.32.62-1.83,1.32.71.71,1.89.7,2.92A8.17,8.17,0,0,1,10.67,92c-.94.79-1.83,1.72-3.25,1.11A65.19,65.19,0,0,1,6.67,81.48Z"/><path class="cls-20" d="M7.42,93.07c1.13,0,1.95-.86,3-1.1a14.14,14.14,0,0,1,1.15,8.11c-.53.62-.45,1.91-1.69,1.75s-1.33-1.24-1.52-2.17A37.64,37.64,0,0,1,7.42,93.07Z"/><path class="cls-15" d="M11.57,100.08c-.38-2.7-.77-5.41-1.15-8.11.18-.51-.14-1.16.42-1.57a3,3,0,0,1,.73,2.13,89.58,89.58,0,0,0,1.92,11.17,2.3,2.3,0,0,1-.08,1.51,2.62,2.62,0,0,1-.22.25C12.1,103.84,12.17,101.86,11.57,100.08Z"/><path class="cls-15" d="M105.54,110.07l-.36-.38a13.83,13.83,0,0,1,2-7l.3,0C107.48,105.36,106.21,107.64,105.54,110.07Z"/><path class="cls-15" d="M14.37,108.55l-.33.36c-.26-1.16-1-2.19-.85-3.45h0C14.6,106.1,14.69,107.25,14.37,108.55Z"/><path class="cls-15" d="M108.42,99.64c-.21,1.06-.16,2.2-.89,3.11l0,0c-.82-1.1-.42-2.11.24-3.09A.6.6,0,0,1,108.42,99.64Z"/><path class="cls-18" d="M108.42,99.64l-.47,0c-.36-.52-.47-1,.3-1.2l.44.39C108.74,99.18,108.74,99.47,108.42,99.64Z"/><path class="cls-21" d="M34,96.9c.22-13.3,4.2-25.74,8.67-38.09,3.69-10.18,7.15-20.45,10.71-30.67l.79-.79c1.51-.23,1.1.86,1,1.58-.25,2.4-1.35,4.56-2.17,6.78-3.27,8.87-6.06,17.9-8.85,26.93C42.56,67.86,40.79,73,39.66,78.4a93.5,93.5,0,0,0-1.22,10.14c-.68,6.74.11,13.51-.67,20.24a12.29,12.29,0,0,0,.14,4.23,2.16,2.16,0,0,1-.81,2c-1.4,3.92-2.43,7.94-3.46,12-1.28-.32-.87-1.41-.91-2.19-.2-3.59.47-7.15.39-10.75a122.66,122.66,0,0,1,.88-13C34.12,99.68,33.65,98.3,34,96.9Z"/><path class="cls-22" d="M37.1,115.06l.43-1.87c.19-.43-.08-.91.08-1.33,1.85-4.61.63-9.41,1-14.12.51-7.56.23-15.2,2.14-22.64,1.35-5.25,2.89-10.43,4.45-15.61,2.23-7.38,4.37-14.79,7.15-22a31.43,31.43,0,0,1,2.86-6.31,7.68,7.68,0,0,0,.68-2.8c.16-.75.08-1.56.66-2.18h.76c.68,1.17,0,2.39.16,3.59-.05,1.64-.51,3.25-.44,4.91a1.13,1.13,0,0,1-.71,1.23c-.72-.53-.14-1.31-.48-2.17.5,2.16-.32,3.71-1.22,5.36C52.47,43,51.94,47.31,51,51.5c-1.92,8.33-3.82,16.67-6.12,24.91C43.21,82.25,42.78,88.3,42,94.29c-.52,3.81-.18,7.68-1,11.46-.73,3.4-1.51,6.79-3.45,9.76Z"/><path class="cls-23" d="M37.51,115.51q1.53-4.83,3.07-9.68c-.19-1.8.72-3.35,1.26-5C45,91.52,48.76,82.43,52.46,73.3c1-2.37,2.34-3.47,4.95-3.19s5.14-.26,7.69.29a1,1,0,0,1,.39.43c-.06.83-.76,1.29-1.1,2a3,3,0,0,1-.87.8,2.23,2.23,0,0,1-.58.21,38.08,38.08,0,0,1-5.85,0,3.58,3.58,0,0,1-.54-.14c-1-.41-1,.47-1.22,1-1.12,2.34-2,4.78-3.2,7.1-1.93,3.88-3.53,7.89-5.31,11.83-2,3.36-3,7.13-4.48,10.73-.63,1.57.85,1.62,1.42,2.34q-4.34,10.56-8.65,21.11a4.5,4.5,0,0,0-.19.9l-1.53,1.22C34.82,124.89,36.16,120.2,37.51,115.51Z"/><path class="cls-24" d="M85.08,128.67c-1.89-5.74-4.46-11.2-6.72-16.79-1.44-3.57-3-7.09-4.49-10.64.79-.91.95.64,1.79.31a23.13,23.13,0,0,0-1.73-5.74c-1.67-4.44-3.69-8.74-5.59-13.09a3.57,3.57,0,0,0-.65-1,44.65,44.65,0,0,1-3.15-7.19,3.32,3.32,0,0,1,.85-3.53h0c1.29-.44,1.32.73,1.61,1.37,2.16,4.73,4.13,9.55,6,14.41,2.4,6.23,4.73,12.49,6.84,18.83,1,3.28,2.08,6.52,3.07,9.8,1.13,3.86,2.4,7.67,3.36,11.58.19.79.8,1.8-.4,2.43A1.4,1.4,0,0,0,85.08,128.67Z"/><path class="cls-25" d="M85.88,129.47c.91-.5.21-1.11.07-1.62-1.14-4.13-2.33-8.24-3.5-12.36.26-.23,0-1,.76-.72A44.66,44.66,0,0,1,86.42,126c-.6-2.86-.41-5.78-.57-8.67-.23-4.35-.46-8.71-.5-13.07a5.57,5.57,0,0,1,1-3.83c.64,1.91.48,3.92.68,5.88.67,6.84,1.19,13.68,1.77,20.64,1.26-.09,2.16-1,3.25-1.42.63.61-.06.71-.38.88A25.78,25.78,0,0,0,87,129C86.9,129.05,86.92,131.26,85.88,129.47Z"/><path class="cls-26" d="M34,96.9c.93,4.28,0,8.53-.22,12.78,0,.32,0,.64-.06,1-.14,4.86-.29,9.73-.4,14.59,0,.6-.3,1.29.31,1.8l-.85,2.4c-.89-1.82-2.64-2-3.94-2.8-.37-.24-1.42-.11-.9-1.13l3.25,1.64c.32-3.74.62-7.27.92-10.81q.83-9.47,1.65-18.92C33.78,97.23,33.93,97.07,34,96.9Z"/><path class="cls-27" d="M37.57,129.41a83.48,83.48,0,0,0,17,2.52c5,.31,10-.07,15-.23a52.68,52.68,0,0,0,5.81-.81l.76.14,0,.21c-1.87.29-3.72.66-5.6.84a99.41,99.41,0,0,1-32.31-2c-.37-.08-.86-.12-1.07-.37S37.4,129.5,37.57,129.41Z"/><path class="cls-28" d="M82.86,114.71c-.09.29-.06.64-.41.78q-1.53-4.83-3-9.67C78,97,77.94,87.9,75.91,79.12c-1.48-6.4-3.38-12.69-4.85-19.1-1.11-4.83-2.28-9.65-3.31-14.5a25,25,0,0,0-3.06-7.89,3.76,3.76,0,0,1-.54-3.08c.07-.25-.4,0-.14,0,0,0,0,0,0,.15,0,.33,0,.65-.29.85-1.35-1.13-.16-3-.6-4.35a6.41,6.41,0,0,1-.6-1.74c.14-1.08-.32-2.13.27-3.19.26,0,.41-.08.66-.09.87,4.5,3,8.48,5,12.53C71,46.08,73.27,53.53,75.42,61c2.06,7.17,4.58,14.23,5.32,21.73a166.45,166.45,0,0,1,.57,22.77c-.11,3,1.16,5.5,1.73,8.25A1.14,1.14,0,0,1,82.86,114.71Z"/><path class="cls-29" d="M56.5,26.21c.22,2.76-.77,5.17-2,7.56-2.73,5.13-4.3,10.71-6,16.24C46,58.37,43.36,66.69,41.29,75.17a62.77,62.77,0,0,0-1.81,14.45c0,4.94-.87,9.91-.26,14.82.39,3.24-.74,5.92-1.69,8.75a8.14,8.14,0,0,1-.3-4.75,58.42,58.42,0,0,0,.29-9.62,101.23,101.23,0,0,1,5.63-34.94c3.39-9.76,6.17-19.73,9.77-29.43a32.22,32.22,0,0,0,1.86-5.86c.11-.65.29-1.15-.6-1.24,0-.11,0-.22,0-.33l.43-.39Z"/><path class="cls-30" d="M68.07,38.63c-1.29-2-1.79-4.39-3-6.34a11.51,11.51,0,0,1-1.57-6.1c.49-.11.76.31,1.14.47-.1.36-.37.77-.28,1.08a39.06,39.06,0,0,0,3.39,8.51c.72.3.81.91.8,1.57A1.16,1.16,0,0,1,68.07,38.63Z"/><path class="cls-31" d="M68.12,37.75c-.13-.5-.27-1-.41-1.5-.51-3-2.2-5.54-2.56-8.69.62-.14,1,.27,1.43.6,5,14.56,10,29.13,15.13,43.67C84.56,80,85.46,88.46,85.91,97c.06,1.14.26,2.27.39,3.4-.91,6.15.08,12.27.3,18.41.1,2.87-.2,5.77.09,8.7q-1.91-6.4-3.83-12.81c0-.23-.09-.47-.13-.7-.35-7.76-.85-15.51-.92-23.28-.09-8.91-2.39-17.41-5.14-25.82s-5.08-16.84-8-25.12A13.23,13.23,0,0,0,68.12,37.75Z"/><path class="cls-32" d="M51.86,81.49c1.14-2.63,2.27-5.26,3.42-7.88.28-.64.54-1.58,1.22-.24-.36,2.59-2,4.71-2.68,7.18a8.22,8.22,0,0,0-.68,3c.91-1.14.91-2.91,2.49-3.64,0,0,.1.06.15.1a.3.3,0,0,1,0,.34L50,92.77c-.2,0-.29.2-.4.36-.39.59-.56,1.71-1.61,1.12-.86-.49-.73-1.4-.43-2.25,1.15-3.21,2.59-6.3,3.89-9.44A4.67,4.67,0,0,1,51.86,81.49Z"/><path class="cls-33" d="M68.07,81.55c2.1,3.32,3.3,7,4.89,10.6,1.09,2.45,1.91,5,2.83,7.56a6.56,6.56,0,0,1,.4,1.67c0,.48.2,1.12-.48,1.29-.52.13-.75-.31-1-.68s-.09-1-.8-.75A91.45,91.45,0,0,1,70,92.75c1-1.09.84.68,1.61.49a4.83,4.83,0,0,0-.53-2.43c-.95-2.43-1.87-4.88-2.89-7.29C67.91,82.9,67.5,82.24,68.07,81.55Z"/><path class="cls-34" d="M68.07,81.55c1.18,3.1,2.41,6.19,3.52,9.32.39,1.12,1.26,2.32.11,3.64-.85-.38-.83-1.38-1.4-1.92,0,0-.12,0-.17,0s-.09.09-.14.14l-4.32-9.26c0-.7.35-.52.7-.28.53.37.58,1.12,1.38,1.68a50.59,50.59,0,0,0-3.21-8.68c-.39-.94-1.11-1.75-1.09-2.84a1.37,1.37,0,0,1,.78-.8c.34.63.39,1.36.79,2A64.16,64.16,0,0,0,68.07,81.55Z"/><path class="cls-35" d="M51.86,81.49c-.5,2.61-1.87,4.89-2.71,7.37-.39,1.16-.77,2.32-1.21,3.45-.26.67-.36,1.41.3,1.7s.8-.6,1.12-1c.18-.22.22-.69.63-.23l-3.87,8.52c-1.44.67-2.23.11-2-1.55a21.52,21.52,0,0,1,1.59-4.5c.22-.6.49-1.18.72-1.77C48.17,89.45,49.71,85.34,51.86,81.49Z"/><path class="cls-36" d="M63.45,73.37c2.44,3.42,4.85,10.21,4.4,12.67-.81-.51-.89-1.4-1.36-2-.18-.23-.09-1.09-.82-.55-1.27-2.57-2.53-5.15-3.8-7.72-.14-1.24.66-1.87,1.56-2.43Z"/><path class="cls-37" d="M55.81,80.38c-.71.37-.71.37-1.07,1.07a19,19,0,0,1-1.89,3.16c-.16-4.19,1.88-7.67,3.65-11.24l0,0c.86.71,2.36,1.16,1.13,2.73A13,13,0,0,1,55.81,80.38Z"/><path class="cls-38" d="M46.42,93.47c-.29,2-1.3,3.71-1.78,5.62s0,2.37,1.48,2.2a36.15,36.15,0,0,1-2.36,5.37c-1.45.28-2.48-.51-2.06-1.7C43.09,101.05,44.19,97,46.42,93.47Z"/><path class="cls-39" d="M57.66,76.07c.61-1.32-.81-1.8-1.13-2.73h6.9l-1.56,2.43C60.46,75.74,59,75.35,57.66,76.07Z"/><path class="cls-6" d="M63.78,35.56c.06-.66.13-1.33.19-2-.18,2.19,1.27,3.71,2.15,5.45,2.21,4.36,2.75,9.2,3.85,13.86C71.78,60.6,73.62,68.32,75.74,76a91.7,91.7,0,0,1,2.41,14,96.71,96.71,0,0,1,1,9.72c0,2,.49,4.09.25,6.15-3.77-10.93-7.82-21.75-12.47-32.34-.37-.85-.28-2.1-1.53-2.43-.37-.72-1-.37-1.54-.38-2.45,0-4.9.09-7.34,0a2.75,2.75,0,0,0-3.16,2C49.48,81.78,45.8,91,42.5,100.42c-.63,1.81-1.62,3.49-1.92,5.41-.09-.16-.29-.35-.26-.49,1.21-5.25,1-10.65,1.66-16C43.45,76.85,47.76,65,50.19,52.73c.86-4.32,1.6-8.68,3.31-12.79.87-2.08,3-3.7,2.48-6.34l.19,2.34a3.47,3.47,0,0,1,.26,2.33,33,33,0,0,0-.14,5.53c-.32,7.45-.2,14.89-.11,22.33a1,1,0,0,0,.81.73,20.82,20.82,0,0,0,5.74,0,1.15,1.15,0,0,0,1-.84,84.49,84.49,0,0,0,.13-8.86q.06-7.24,0-14.48c-.31-1.59.07-3.22-.31-4.81A3.6,3.6,0,0,1,63.78,35.56Z"/><path class="cls-40" d="M55.73,66.79q0-11.55.05-23.11c.4-1.81-.1-3.68.28-5.49l.11-2.25c.25-2.08.75-8.41,1-10.49.73,1.2.12,6.77,0,8-.62,9.38-.65,18.77-.66,28.16,0,1.48,0,3,0,4.44C56.58,66.64,56.35,66.92,55.73,66.79Z"/><path class="cls-33" d="M65,74.53a2.27,2.27,0,0,1-.79-2c0-.76.64-1.11,1.16-1.52A3.63,3.63,0,0,0,65,74.53Z"/><path class="cls-25" d="M68.12,37.75A13.71,13.71,0,0,1,69.81,42c3.79,11.51,7.7,23,10.81,34.72a68.13,68.13,0,0,1,1.74,14.07c.28,5.45.23,10.91.47,16.36.1,2.29.76,4.57-.1,6.84-1-2.81-2-5.5-2-8.64a173,173,0,0,0-.35-21A89.55,89.55,0,0,0,76.6,67c-2.66-9-5.16-18-8.26-26.84a8.37,8.37,0,0,1-.27-1.51C68.09,38.34,68.1,38,68.12,37.75Z"/><path class="cls-41" d="M64.16,42.54q0,12.14.07,24.26c-.86.08-1.07-.35-.87-1.11.22-10.42,0-20.84-.35-31.25-.06-1.71-.93-6.76-.29-8.46a69.84,69.84,0,0,0,1.06,9.58l.12,2.24C64.27,39.36,63.79,41,64.16,42.54Z"/><path class="cls-42" d="M63.36,65.69c.18.46.3,1,.87,1.11-.21.77-.91.64-1.41.65-2,.06-4,0-5.92,0-.48,0-1.07,0-1.17-.68.44-.06.63-.39.79-.74C57.92,63.94,61.86,63.74,63.36,65.69Z"/><path class="cls-22" d="M56.06,38.19a24.62,24.62,0,0,1-.28,5.49C55.68,41.84,55.41,40,56.06,38.19Z"/><path class="cls-28" d="M64.16,42.54a16.74,16.74,0,0,1-.26-4.74C64.55,39.35,64.28,41,64.16,42.54Z"/></svg>